M48
;GenerationSoftware,Autodesk,EAGLE,9.5.2*%
;CreationDate,2020-03-31T14:54:20Z*%
FMAT,2
ICI,OFF
METRIC,TZ,000.000
T6C0.300
T5C0.305
T4C0.650
T3C1.000
T2C1.016
T1C2.000
%
G90
M71
T1
X24638Y24511
X45466Y24511
X45466Y47625
X24638Y47625
T2
X74168Y13208
X71628Y13208
X69088Y13208
X66548Y13208
X64008Y13208
X61468Y13208
X58928Y13208
X56388Y13208
X53848Y13208
X51308Y13208
X48768Y13208
T3
X38862Y48768
X36322Y48768
X33782Y48768
X31242Y48768
T4
X23527Y6175
X17748Y6175
T5
X35200Y17408
X24832Y52454
X44774Y52454
X78592Y7373
X19046Y47258
X72781Y22707
X29773Y36326
X36813Y8909
X45901Y8627
X26931Y10470
X7347Y13466
X25395Y32794
X66432Y1024
X46106Y33920
X63770Y26214
X61312Y20301
X67968Y20531
X67968Y14592
X83635Y14592
X80742Y12723
X80742Y15181
X65254Y11085
X78720Y11366
X81178Y29722
X81178Y22963
X74342Y31386
X75187Y32230
X50150Y37274
X52531Y34253
X68096Y34253
X68096Y31386
X67277Y10035
X39603Y35942
X78208Y9421
X79821Y17306
X45798Y28467
X45926Y31386
X47334Y7219
X85862Y7782
X82765Y6682
X84275Y25242
X14387Y11674
X14080Y15027
X77517Y15386
X77491Y8730
X54042Y9549
X67328Y9088
X45363Y37837
X45338Y32998
X43008Y42266
X19712Y22349
X45210Y28979
X21069Y29210
X43597Y11085
X21760Y23526
X21760Y21939
X47770Y20096
X47770Y16614
X62925Y18560
X63770Y28851
X49690Y28339
X52531Y29517
X58829Y29696
X60109Y30106
X53683Y16973
X53683Y18150
X7194Y19354
X7194Y21965
X10470Y18893
X6605Y23450
X6605Y20275
X49152Y36070
X53120Y31283
X66304Y31283
X66560Y25037
X62182Y20301
X62643Y11085
X50022Y11085
X76518Y19635
X76544Y10675
X52045Y10138
X17280Y39296
X17280Y35200
X46182Y22707
X44423Y3251
X46592Y23398
X46746Y4858
X35866Y7654
X2995Y25907
X33306Y40371
X33434Y36941
X33434Y34688
X22502Y19174
X22477Y30643
X31386Y14182
X31437Y12032
X31411Y42829
X31411Y32410
X39014Y36454
X39014Y40064
X38886Y33254
X23706Y31309
X41421Y13619
X41446Y9446
X23066Y32512
X23194Y19661
X42880Y20506
X43059Y32026
X50099Y26291
X50099Y18688
X68096Y22886
X65971Y29696
X50099Y17408
X53094Y17562
X53094Y15232
X19277Y25754
X18048Y27366
X13670Y12058
X13670Y18150
X13056Y11571
X13082Y21965
X19635Y29517
X30694Y40986
X30694Y35533
X74598Y29978
X74598Y24448
X80589Y29210
X80589Y24141
X83635Y17229
X83635Y15795
X83149Y7398
X83123Y10701
X33818Y11341
X32102Y30797
X17843Y42240
X17843Y39859
X34022Y39142
X34022Y27443
X49690Y27571
X52941Y21146
X67405Y21888
X67405Y23757
X47590Y35430
X49766Y14618
X85786Y19226
X86067Y16410
X80410Y5837
X80384Y9907
X49536Y25037
X49536Y19277
X56243Y30694
X40243Y51891
X40141Y39066
X49562Y36762
X52531Y30694
X43750Y41856
X43725Y51174
X21760Y20634
X21914Y17510
X18790Y11674
X18816Y17510
X19558Y11674
X19558Y14080
X81766Y18637
X22298Y8806
X19635Y9523
X20275Y18944
X26240Y21939
X58931Y19533
X64000Y21299
X76109Y29210
X85478Y14336
X46387Y40678
X70528Y33920
X53683Y16051
X16666Y8550
X37862Y7654
X6810Y28467
X26445Y20378
X32154Y41907
X37197Y37837
X43546Y36326
X40755Y41805
X54554Y5478
X41421Y18176
X50842Y5478
X28058Y2918
X82765Y22221
X73293Y5734
X82586Y15744
X80410Y10675
T6
X78655Y28448
X78655Y29210
X77893Y28448
X77893Y29210
X78655Y29972
X77893Y29972
M30