G04 EAGLE Gerber RS-274X export*
G75*
%MOMM*%
%FSLAX34Y34*%
%LPD*%
%INBottom Solder Mask*%
%IPPOS*%
%AMOC8*
5,1,8,0,0,1.08239X$1,22.5*%
G01*
%ADD10R,0.736600X1.371600*%
%ADD11R,1.609600X1.609600*%
%ADD12C,1.609600*%
%ADD13C,2.101600*%
%ADD14R,1.111600X2.841600*%
%ADD15R,1.601600X3.101600*%
%ADD16C,1.981200*%
%ADD17C,0.751600*%


D10*
X842700Y263375D03*
X833700Y263375D03*
X858525Y88900D03*
X849525Y88900D03*
X828045Y55880D03*
X819045Y55880D03*
X188291Y271780D03*
X196419Y271780D03*
X249936Y279400D03*
X258064Y279400D03*
X188976Y246380D03*
X197104Y246380D03*
D11*
X312420Y487680D03*
D12*
X337820Y487680D03*
X363220Y487680D03*
X388620Y487680D03*
D13*
X246380Y476250D03*
X454660Y476250D03*
X454660Y245110D03*
X246380Y245110D03*
D14*
X338300Y94980D03*
X358300Y94980D03*
X378300Y94980D03*
X398300Y94980D03*
D15*
X314300Y19980D03*
X422300Y19980D03*
D14*
X490700Y94980D03*
X510700Y94980D03*
X530700Y94980D03*
X550700Y94980D03*
D15*
X466700Y19980D03*
X574700Y19980D03*
D14*
X643100Y94980D03*
X663100Y94980D03*
X683100Y94980D03*
X703100Y94980D03*
D15*
X619100Y19980D03*
X727100Y19980D03*
D10*
X857940Y127000D03*
X848940Y127000D03*
X857940Y203200D03*
X848940Y203200D03*
D16*
X487680Y132080D03*
X513080Y132080D03*
X538480Y132080D03*
X563880Y132080D03*
X589280Y132080D03*
X614680Y132080D03*
X640080Y132080D03*
X665480Y132080D03*
X690880Y132080D03*
X716280Y132080D03*
X741680Y132080D03*
D10*
X817300Y165100D03*
X808300Y165100D03*
D17*
X177475Y61750D03*
X235275Y61750D03*
M02*
