G04 EAGLE Gerber RS-274X export*
G75*
%MOMM*%
%FSLAX34Y34*%
%LPD*%
%INMechanical*%
%IPPOS*%
%AMOC8*
5,1,8,0,0,1.08239X$1,22.5*%
G01*
%ADD10C,0.000000*%
%ADD11C,0.010000*%
%ADD12C,0.254000*%


D10*
X154250Y-1270D02*
X733300Y0D01*
X154250Y-1270D02*
X150177Y-1117D01*
X146108Y-864D01*
X142047Y-512D01*
X137995Y-61D01*
X133956Y489D01*
X129932Y1138D01*
X125924Y1885D01*
X121936Y2730D01*
X117970Y3672D01*
X114028Y4711D01*
X110113Y5846D01*
X106227Y7077D01*
X102371Y8402D01*
X98550Y9821D01*
X94764Y11333D01*
X91017Y12938D01*
X87310Y14633D01*
X83645Y16419D01*
X80025Y18294D01*
X76452Y20257D01*
X72929Y22306D01*
X69456Y24441D01*
X66037Y26661D01*
X62673Y28963D01*
X59366Y31347D01*
X56119Y33812D01*
X52932Y36355D01*
X49809Y38975D01*
X46752Y41670D01*
X43760Y44440D01*
X40838Y47282D01*
X37986Y50195D01*
X35206Y53177D01*
X32500Y56225D01*
X29869Y59339D01*
X27315Y62517D01*
X24840Y65756D01*
X22445Y69054D01*
X20131Y72410D01*
X17900Y75822D01*
X15753Y79287D01*
X13691Y82804D01*
X11716Y86370D01*
X9829Y89984D01*
X8031Y93642D01*
X6323Y97343D01*
X4706Y101085D01*
X3180Y104866D01*
X1748Y108683D01*
X410Y112533D01*
X-834Y116415D01*
X-1982Y120327D01*
X-3035Y124265D01*
X-3990Y128228D01*
X-4849Y132213D01*
X-5610Y136218D01*
X-6272Y140240D01*
X-6836Y144277D01*
X-7301Y148327D01*
X-7667Y152387D01*
X-7934Y156455D01*
X-8100Y160528D01*
X-8168Y164604D01*
X-8135Y168681D01*
X-8003Y172755D01*
X-7771Y176825D01*
X-7439Y180888D01*
X-7009Y184942D01*
X-6479Y188984D01*
X-5850Y193011D01*
X-5124Y197023D01*
X-4299Y201015D01*
X-3377Y204986D01*
X-2358Y208933D01*
X-1243Y212854D01*
X-32Y216746D01*
X1274Y220608D01*
X2673Y224437D01*
X4166Y228230D01*
X5752Y231986D01*
X7428Y235701D01*
X9195Y239375D01*
X11052Y243004D01*
X12996Y246587D01*
X15028Y250121D01*
X17146Y253604D01*
X19348Y257035D01*
X21633Y260411D01*
X24000Y263729D01*
X26448Y266989D01*
X28975Y270188D01*
X31579Y273324D01*
X34259Y276396D01*
X37014Y279401D01*
X39841Y282338D01*
X42739Y285205D01*
X45707Y288000D01*
X48742Y290721D01*
X51842Y293368D01*
X55007Y295938D01*
X58233Y298429D01*
X61519Y300841D01*
X64864Y303172D01*
X68264Y305421D01*
X71719Y307585D01*
X75225Y309665D01*
X78781Y311658D01*
X82385Y313563D01*
X86034Y315380D01*
X89727Y317107D01*
X93460Y318743D01*
X97233Y320287D01*
X101042Y321738D01*
X104886Y323096D01*
X108762Y324360D01*
X112668Y325528D01*
X116600Y326600D01*
X740000Y333299D02*
X744073Y333097D01*
X748139Y332794D01*
X752198Y332392D01*
X756245Y331891D01*
X760278Y331291D01*
X764296Y330593D01*
X768295Y329797D01*
X772274Y328903D01*
X776230Y327912D01*
X780160Y326824D01*
X784063Y325641D01*
X787935Y324362D01*
X791775Y322990D01*
X795580Y321523D01*
X799348Y319965D01*
X803077Y318314D01*
X806765Y316573D01*
X810409Y314742D01*
X814007Y312822D01*
X817556Y310815D01*
X821056Y308722D01*
X824504Y306544D01*
X827897Y304282D01*
X831234Y301938D01*
X834512Y299513D01*
X837730Y297008D01*
X840886Y294425D01*
X843978Y291767D01*
X847004Y289033D01*
X849962Y286226D01*
X852851Y283347D01*
X855668Y280399D01*
X858413Y277383D01*
X861082Y274300D01*
X863676Y271153D01*
X866192Y267944D01*
X868628Y264674D01*
X870984Y261345D01*
X873258Y257960D01*
X875448Y254520D01*
X877554Y251028D01*
X879573Y247485D01*
X881505Y243894D01*
X883349Y240256D01*
X885103Y236575D01*
X886767Y232852D01*
X888339Y229089D01*
X889818Y225289D01*
X891205Y221454D01*
X892497Y217586D01*
X893693Y213688D01*
X894795Y209761D01*
X895800Y205809D01*
X896708Y201834D01*
X897518Y197837D01*
X898230Y193822D01*
X898844Y189790D01*
X899359Y185745D01*
X899776Y181688D01*
X900092Y177623D01*
X900310Y173550D01*
X900427Y169474D01*
X900445Y165396D01*
X900363Y161319D01*
X900181Y157245D01*
X899900Y153177D01*
X899519Y149117D01*
X899039Y145067D01*
X898461Y141031D01*
X897783Y137009D01*
X897008Y133006D01*
X896135Y129022D01*
X895164Y125062D01*
X894097Y121126D01*
X892934Y117217D01*
X891676Y113338D01*
X890324Y109491D01*
X888877Y105678D01*
X887338Y101902D01*
X885707Y98164D01*
X883985Y94468D01*
X882173Y90814D01*
X880272Y87207D01*
X878284Y83646D01*
X876209Y80136D01*
X874049Y76677D01*
X871805Y73272D01*
X869478Y69923D01*
X867070Y66632D01*
X864582Y63400D01*
X862016Y60231D01*
X859374Y57125D01*
X856656Y54085D01*
X853864Y51112D01*
X851001Y48209D01*
X848067Y45376D01*
X845065Y42616D01*
X841997Y39930D01*
X838863Y37320D01*
X835667Y34788D01*
X832410Y32334D01*
X829094Y29961D01*
X825720Y27670D01*
X822292Y25461D01*
X818811Y23338D01*
X815278Y21300D01*
X811697Y19349D01*
X808070Y17486D01*
X804398Y15713D01*
X800683Y14030D01*
X796929Y12438D01*
X793136Y10939D01*
X789309Y9532D01*
X785447Y8220D01*
X781555Y7003D01*
X777635Y5881D01*
X773688Y4856D01*
X769717Y3927D01*
X765725Y3096D01*
X761713Y2363D01*
X757685Y1727D01*
X753643Y1191D01*
X749588Y754D01*
X745524Y416D01*
X741453Y177D01*
X737378Y39D01*
X733300Y0D01*
X740000Y333300D02*
X739836Y336145D01*
X739603Y338986D01*
X739301Y341821D01*
X738929Y344647D01*
X738489Y347464D01*
X737981Y350269D01*
X737404Y353060D01*
X736760Y355837D01*
X736048Y358597D01*
X735269Y361339D01*
X734424Y364062D01*
X733512Y366763D01*
X732535Y369441D01*
X731493Y372094D01*
X730387Y374721D01*
X729217Y377321D01*
X727985Y379891D01*
X726690Y382430D01*
X725333Y384938D01*
X723916Y387411D01*
X722439Y389849D01*
X720903Y392251D01*
X719309Y394614D01*
X717658Y396938D01*
X715951Y399221D01*
X714189Y401462D01*
X712373Y403659D01*
X710504Y405811D01*
X708583Y407917D01*
X706611Y409976D01*
X704590Y411986D01*
X702520Y413946D01*
X700404Y415855D01*
X698241Y417713D01*
X696034Y419517D01*
X693783Y421266D01*
X691491Y422961D01*
X689158Y424599D01*
X686786Y426179D01*
X684376Y427702D01*
X681930Y429165D01*
X679448Y430569D01*
X676934Y431911D01*
X674387Y433192D01*
X671810Y434410D01*
X669204Y435566D01*
X666571Y436657D01*
X663912Y437685D01*
X661228Y438647D01*
X658522Y439543D01*
X655795Y440373D01*
X653049Y441137D01*
X650285Y441834D01*
X647505Y442463D01*
X644710Y443024D01*
X641902Y443517D01*
X639083Y443941D01*
X636255Y444297D01*
X633419Y444583D01*
X630576Y444801D01*
X627730Y444949D01*
X624880Y445028D01*
X622030Y445037D01*
X619180Y444977D01*
X616332Y444848D01*
X613488Y444649D01*
X610650Y444382D01*
X607820Y444045D01*
X604998Y443639D01*
X602187Y443165D01*
X599389Y442622D01*
X596604Y442012D01*
X593836Y441333D01*
X591084Y440588D01*
X588352Y439776D01*
X585640Y438897D01*
X582950Y437953D01*
X580284Y436943D01*
X577644Y435869D01*
X575030Y434731D01*
X572445Y433530D01*
X569890Y432266D01*
X567367Y430940D01*
X564876Y429553D01*
X562420Y428106D01*
X560000Y426600D01*
X557521Y431703D01*
X554919Y436744D01*
X552194Y441720D01*
X549350Y446629D01*
X546386Y451466D01*
X543305Y456230D01*
X540109Y460918D01*
X536800Y465526D01*
X533380Y470052D01*
X529850Y474493D01*
X526213Y478847D01*
X522471Y483112D01*
X518626Y487283D01*
X514681Y491360D01*
X510637Y495340D01*
X506498Y499219D01*
X502266Y502997D01*
X497942Y506671D01*
X493531Y510238D01*
X489033Y513696D01*
X484453Y517044D01*
X479793Y520279D01*
X475055Y523400D01*
X470243Y526404D01*
X465358Y529290D01*
X460405Y532057D01*
X455386Y534701D01*
X450304Y537223D01*
X445162Y539620D01*
X439963Y541891D01*
X434711Y544035D01*
X429407Y546050D01*
X424056Y547935D01*
X418661Y549689D01*
X413225Y551311D01*
X407750Y552800D01*
X402241Y554156D01*
X396701Y555377D01*
X391133Y556462D01*
X385539Y557411D01*
X379925Y558224D01*
X374292Y558900D01*
X368644Y559438D01*
X362985Y559838D01*
X357318Y560101D01*
X351646Y560225D01*
X345973Y560211D01*
X340301Y560059D01*
X334636Y559768D01*
X328979Y559340D01*
X323334Y558774D01*
X317704Y558070D01*
X312094Y557230D01*
X306505Y556253D01*
X300942Y555140D01*
X295408Y553892D01*
X289906Y552509D01*
X284439Y550993D01*
X279010Y549344D01*
X273624Y547563D01*
X268282Y545651D01*
X262989Y543610D01*
X257747Y541440D01*
X252560Y539144D01*
X247429Y536721D01*
X242360Y534174D01*
X237354Y531505D01*
X232415Y528714D01*
X227545Y525804D01*
X222747Y522776D01*
X218025Y519632D01*
X213380Y516373D01*
X208817Y513003D01*
X204337Y509522D01*
X199943Y505934D01*
X195638Y502239D01*
X191424Y498440D01*
X187304Y494540D01*
X183280Y490541D01*
X179355Y486444D01*
X175531Y482254D01*
X171810Y477971D01*
X168195Y473599D01*
X164687Y469140D01*
X161289Y464597D01*
X158003Y459972D01*
X154830Y455269D01*
X151773Y450490D01*
X148833Y445638D01*
X146013Y440715D01*
X143313Y435726D01*
X140736Y430672D01*
X138282Y425557D01*
X135954Y420383D01*
X133753Y415154D01*
X131679Y409873D01*
X129735Y404544D01*
X127922Y399168D01*
X126240Y393750D01*
X124691Y388292D01*
X123275Y382798D01*
X121993Y377272D01*
X120846Y371716D01*
X119836Y366133D01*
X118961Y360528D01*
X118223Y354903D01*
X117623Y349261D01*
X117160Y343607D01*
X116836Y337943D01*
X116649Y332273D01*
X116601Y326600D01*
X236380Y476250D02*
X236383Y476495D01*
X236392Y476741D01*
X236407Y476986D01*
X236428Y477230D01*
X236455Y477474D01*
X236488Y477717D01*
X236527Y477960D01*
X236572Y478201D01*
X236623Y478441D01*
X236680Y478680D01*
X236742Y478917D01*
X236811Y479153D01*
X236885Y479387D01*
X236965Y479619D01*
X237050Y479849D01*
X237141Y480077D01*
X237238Y480302D01*
X237340Y480526D01*
X237448Y480746D01*
X237561Y480964D01*
X237679Y481179D01*
X237803Y481391D01*
X237931Y481600D01*
X238065Y481806D01*
X238204Y482008D01*
X238348Y482207D01*
X238497Y482402D01*
X238650Y482594D01*
X238808Y482782D01*
X238970Y482966D01*
X239138Y483145D01*
X239309Y483321D01*
X239485Y483492D01*
X239664Y483660D01*
X239848Y483822D01*
X240036Y483980D01*
X240228Y484133D01*
X240423Y484282D01*
X240622Y484426D01*
X240824Y484565D01*
X241030Y484699D01*
X241239Y484827D01*
X241451Y484951D01*
X241666Y485069D01*
X241884Y485182D01*
X242104Y485290D01*
X242328Y485392D01*
X242553Y485489D01*
X242781Y485580D01*
X243011Y485665D01*
X243243Y485745D01*
X243477Y485819D01*
X243713Y485888D01*
X243950Y485950D01*
X244189Y486007D01*
X244429Y486058D01*
X244670Y486103D01*
X244913Y486142D01*
X245156Y486175D01*
X245400Y486202D01*
X245644Y486223D01*
X245889Y486238D01*
X246135Y486247D01*
X246380Y486250D01*
X246625Y486247D01*
X246871Y486238D01*
X247116Y486223D01*
X247360Y486202D01*
X247604Y486175D01*
X247847Y486142D01*
X248090Y486103D01*
X248331Y486058D01*
X248571Y486007D01*
X248810Y485950D01*
X249047Y485888D01*
X249283Y485819D01*
X249517Y485745D01*
X249749Y485665D01*
X249979Y485580D01*
X250207Y485489D01*
X250432Y485392D01*
X250656Y485290D01*
X250876Y485182D01*
X251094Y485069D01*
X251309Y484951D01*
X251521Y484827D01*
X251730Y484699D01*
X251936Y484565D01*
X252138Y484426D01*
X252337Y484282D01*
X252532Y484133D01*
X252724Y483980D01*
X252912Y483822D01*
X253096Y483660D01*
X253275Y483492D01*
X253451Y483321D01*
X253622Y483145D01*
X253790Y482966D01*
X253952Y482782D01*
X254110Y482594D01*
X254263Y482402D01*
X254412Y482207D01*
X254556Y482008D01*
X254695Y481806D01*
X254829Y481600D01*
X254957Y481391D01*
X255081Y481179D01*
X255199Y480964D01*
X255312Y480746D01*
X255420Y480526D01*
X255522Y480302D01*
X255619Y480077D01*
X255710Y479849D01*
X255795Y479619D01*
X255875Y479387D01*
X255949Y479153D01*
X256018Y478917D01*
X256080Y478680D01*
X256137Y478441D01*
X256188Y478201D01*
X256233Y477960D01*
X256272Y477717D01*
X256305Y477474D01*
X256332Y477230D01*
X256353Y476986D01*
X256368Y476741D01*
X256377Y476495D01*
X256380Y476250D01*
X256377Y476005D01*
X256368Y475759D01*
X256353Y475514D01*
X256332Y475270D01*
X256305Y475026D01*
X256272Y474783D01*
X256233Y474540D01*
X256188Y474299D01*
X256137Y474059D01*
X256080Y473820D01*
X256018Y473583D01*
X255949Y473347D01*
X255875Y473113D01*
X255795Y472881D01*
X255710Y472651D01*
X255619Y472423D01*
X255522Y472198D01*
X255420Y471974D01*
X255312Y471754D01*
X255199Y471536D01*
X255081Y471321D01*
X254957Y471109D01*
X254829Y470900D01*
X254695Y470694D01*
X254556Y470492D01*
X254412Y470293D01*
X254263Y470098D01*
X254110Y469906D01*
X253952Y469718D01*
X253790Y469534D01*
X253622Y469355D01*
X253451Y469179D01*
X253275Y469008D01*
X253096Y468840D01*
X252912Y468678D01*
X252724Y468520D01*
X252532Y468367D01*
X252337Y468218D01*
X252138Y468074D01*
X251936Y467935D01*
X251730Y467801D01*
X251521Y467673D01*
X251309Y467549D01*
X251094Y467431D01*
X250876Y467318D01*
X250656Y467210D01*
X250432Y467108D01*
X250207Y467011D01*
X249979Y466920D01*
X249749Y466835D01*
X249517Y466755D01*
X249283Y466681D01*
X249047Y466612D01*
X248810Y466550D01*
X248571Y466493D01*
X248331Y466442D01*
X248090Y466397D01*
X247847Y466358D01*
X247604Y466325D01*
X247360Y466298D01*
X247116Y466277D01*
X246871Y466262D01*
X246625Y466253D01*
X246380Y466250D01*
X246135Y466253D01*
X245889Y466262D01*
X245644Y466277D01*
X245400Y466298D01*
X245156Y466325D01*
X244913Y466358D01*
X244670Y466397D01*
X244429Y466442D01*
X244189Y466493D01*
X243950Y466550D01*
X243713Y466612D01*
X243477Y466681D01*
X243243Y466755D01*
X243011Y466835D01*
X242781Y466920D01*
X242553Y467011D01*
X242328Y467108D01*
X242104Y467210D01*
X241884Y467318D01*
X241666Y467431D01*
X241451Y467549D01*
X241239Y467673D01*
X241030Y467801D01*
X240824Y467935D01*
X240622Y468074D01*
X240423Y468218D01*
X240228Y468367D01*
X240036Y468520D01*
X239848Y468678D01*
X239664Y468840D01*
X239485Y469008D01*
X239309Y469179D01*
X239138Y469355D01*
X238970Y469534D01*
X238808Y469718D01*
X238650Y469906D01*
X238497Y470098D01*
X238348Y470293D01*
X238204Y470492D01*
X238065Y470694D01*
X237931Y470900D01*
X237803Y471109D01*
X237679Y471321D01*
X237561Y471536D01*
X237448Y471754D01*
X237340Y471974D01*
X237238Y472198D01*
X237141Y472423D01*
X237050Y472651D01*
X236965Y472881D01*
X236885Y473113D01*
X236811Y473347D01*
X236742Y473583D01*
X236680Y473820D01*
X236623Y474059D01*
X236572Y474299D01*
X236527Y474540D01*
X236488Y474783D01*
X236455Y475026D01*
X236428Y475270D01*
X236407Y475514D01*
X236392Y475759D01*
X236383Y476005D01*
X236380Y476250D01*
X444660Y476250D02*
X444663Y476495D01*
X444672Y476741D01*
X444687Y476986D01*
X444708Y477230D01*
X444735Y477474D01*
X444768Y477717D01*
X444807Y477960D01*
X444852Y478201D01*
X444903Y478441D01*
X444960Y478680D01*
X445022Y478917D01*
X445091Y479153D01*
X445165Y479387D01*
X445245Y479619D01*
X445330Y479849D01*
X445421Y480077D01*
X445518Y480302D01*
X445620Y480526D01*
X445728Y480746D01*
X445841Y480964D01*
X445959Y481179D01*
X446083Y481391D01*
X446211Y481600D01*
X446345Y481806D01*
X446484Y482008D01*
X446628Y482207D01*
X446777Y482402D01*
X446930Y482594D01*
X447088Y482782D01*
X447250Y482966D01*
X447418Y483145D01*
X447589Y483321D01*
X447765Y483492D01*
X447944Y483660D01*
X448128Y483822D01*
X448316Y483980D01*
X448508Y484133D01*
X448703Y484282D01*
X448902Y484426D01*
X449104Y484565D01*
X449310Y484699D01*
X449519Y484827D01*
X449731Y484951D01*
X449946Y485069D01*
X450164Y485182D01*
X450384Y485290D01*
X450608Y485392D01*
X450833Y485489D01*
X451061Y485580D01*
X451291Y485665D01*
X451523Y485745D01*
X451757Y485819D01*
X451993Y485888D01*
X452230Y485950D01*
X452469Y486007D01*
X452709Y486058D01*
X452950Y486103D01*
X453193Y486142D01*
X453436Y486175D01*
X453680Y486202D01*
X453924Y486223D01*
X454169Y486238D01*
X454415Y486247D01*
X454660Y486250D01*
X454905Y486247D01*
X455151Y486238D01*
X455396Y486223D01*
X455640Y486202D01*
X455884Y486175D01*
X456127Y486142D01*
X456370Y486103D01*
X456611Y486058D01*
X456851Y486007D01*
X457090Y485950D01*
X457327Y485888D01*
X457563Y485819D01*
X457797Y485745D01*
X458029Y485665D01*
X458259Y485580D01*
X458487Y485489D01*
X458712Y485392D01*
X458936Y485290D01*
X459156Y485182D01*
X459374Y485069D01*
X459589Y484951D01*
X459801Y484827D01*
X460010Y484699D01*
X460216Y484565D01*
X460418Y484426D01*
X460617Y484282D01*
X460812Y484133D01*
X461004Y483980D01*
X461192Y483822D01*
X461376Y483660D01*
X461555Y483492D01*
X461731Y483321D01*
X461902Y483145D01*
X462070Y482966D01*
X462232Y482782D01*
X462390Y482594D01*
X462543Y482402D01*
X462692Y482207D01*
X462836Y482008D01*
X462975Y481806D01*
X463109Y481600D01*
X463237Y481391D01*
X463361Y481179D01*
X463479Y480964D01*
X463592Y480746D01*
X463700Y480526D01*
X463802Y480302D01*
X463899Y480077D01*
X463990Y479849D01*
X464075Y479619D01*
X464155Y479387D01*
X464229Y479153D01*
X464298Y478917D01*
X464360Y478680D01*
X464417Y478441D01*
X464468Y478201D01*
X464513Y477960D01*
X464552Y477717D01*
X464585Y477474D01*
X464612Y477230D01*
X464633Y476986D01*
X464648Y476741D01*
X464657Y476495D01*
X464660Y476250D01*
X464657Y476005D01*
X464648Y475759D01*
X464633Y475514D01*
X464612Y475270D01*
X464585Y475026D01*
X464552Y474783D01*
X464513Y474540D01*
X464468Y474299D01*
X464417Y474059D01*
X464360Y473820D01*
X464298Y473583D01*
X464229Y473347D01*
X464155Y473113D01*
X464075Y472881D01*
X463990Y472651D01*
X463899Y472423D01*
X463802Y472198D01*
X463700Y471974D01*
X463592Y471754D01*
X463479Y471536D01*
X463361Y471321D01*
X463237Y471109D01*
X463109Y470900D01*
X462975Y470694D01*
X462836Y470492D01*
X462692Y470293D01*
X462543Y470098D01*
X462390Y469906D01*
X462232Y469718D01*
X462070Y469534D01*
X461902Y469355D01*
X461731Y469179D01*
X461555Y469008D01*
X461376Y468840D01*
X461192Y468678D01*
X461004Y468520D01*
X460812Y468367D01*
X460617Y468218D01*
X460418Y468074D01*
X460216Y467935D01*
X460010Y467801D01*
X459801Y467673D01*
X459589Y467549D01*
X459374Y467431D01*
X459156Y467318D01*
X458936Y467210D01*
X458712Y467108D01*
X458487Y467011D01*
X458259Y466920D01*
X458029Y466835D01*
X457797Y466755D01*
X457563Y466681D01*
X457327Y466612D01*
X457090Y466550D01*
X456851Y466493D01*
X456611Y466442D01*
X456370Y466397D01*
X456127Y466358D01*
X455884Y466325D01*
X455640Y466298D01*
X455396Y466277D01*
X455151Y466262D01*
X454905Y466253D01*
X454660Y466250D01*
X454415Y466253D01*
X454169Y466262D01*
X453924Y466277D01*
X453680Y466298D01*
X453436Y466325D01*
X453193Y466358D01*
X452950Y466397D01*
X452709Y466442D01*
X452469Y466493D01*
X452230Y466550D01*
X451993Y466612D01*
X451757Y466681D01*
X451523Y466755D01*
X451291Y466835D01*
X451061Y466920D01*
X450833Y467011D01*
X450608Y467108D01*
X450384Y467210D01*
X450164Y467318D01*
X449946Y467431D01*
X449731Y467549D01*
X449519Y467673D01*
X449310Y467801D01*
X449104Y467935D01*
X448902Y468074D01*
X448703Y468218D01*
X448508Y468367D01*
X448316Y468520D01*
X448128Y468678D01*
X447944Y468840D01*
X447765Y469008D01*
X447589Y469179D01*
X447418Y469355D01*
X447250Y469534D01*
X447088Y469718D01*
X446930Y469906D01*
X446777Y470098D01*
X446628Y470293D01*
X446484Y470492D01*
X446345Y470694D01*
X446211Y470900D01*
X446083Y471109D01*
X445959Y471321D01*
X445841Y471536D01*
X445728Y471754D01*
X445620Y471974D01*
X445518Y472198D01*
X445421Y472423D01*
X445330Y472651D01*
X445245Y472881D01*
X445165Y473113D01*
X445091Y473347D01*
X445022Y473583D01*
X444960Y473820D01*
X444903Y474059D01*
X444852Y474299D01*
X444807Y474540D01*
X444768Y474783D01*
X444735Y475026D01*
X444708Y475270D01*
X444687Y475514D01*
X444672Y475759D01*
X444663Y476005D01*
X444660Y476250D01*
X444660Y245110D02*
X444663Y245355D01*
X444672Y245601D01*
X444687Y245846D01*
X444708Y246090D01*
X444735Y246334D01*
X444768Y246577D01*
X444807Y246820D01*
X444852Y247061D01*
X444903Y247301D01*
X444960Y247540D01*
X445022Y247777D01*
X445091Y248013D01*
X445165Y248247D01*
X445245Y248479D01*
X445330Y248709D01*
X445421Y248937D01*
X445518Y249162D01*
X445620Y249386D01*
X445728Y249606D01*
X445841Y249824D01*
X445959Y250039D01*
X446083Y250251D01*
X446211Y250460D01*
X446345Y250666D01*
X446484Y250868D01*
X446628Y251067D01*
X446777Y251262D01*
X446930Y251454D01*
X447088Y251642D01*
X447250Y251826D01*
X447418Y252005D01*
X447589Y252181D01*
X447765Y252352D01*
X447944Y252520D01*
X448128Y252682D01*
X448316Y252840D01*
X448508Y252993D01*
X448703Y253142D01*
X448902Y253286D01*
X449104Y253425D01*
X449310Y253559D01*
X449519Y253687D01*
X449731Y253811D01*
X449946Y253929D01*
X450164Y254042D01*
X450384Y254150D01*
X450608Y254252D01*
X450833Y254349D01*
X451061Y254440D01*
X451291Y254525D01*
X451523Y254605D01*
X451757Y254679D01*
X451993Y254748D01*
X452230Y254810D01*
X452469Y254867D01*
X452709Y254918D01*
X452950Y254963D01*
X453193Y255002D01*
X453436Y255035D01*
X453680Y255062D01*
X453924Y255083D01*
X454169Y255098D01*
X454415Y255107D01*
X454660Y255110D01*
X454905Y255107D01*
X455151Y255098D01*
X455396Y255083D01*
X455640Y255062D01*
X455884Y255035D01*
X456127Y255002D01*
X456370Y254963D01*
X456611Y254918D01*
X456851Y254867D01*
X457090Y254810D01*
X457327Y254748D01*
X457563Y254679D01*
X457797Y254605D01*
X458029Y254525D01*
X458259Y254440D01*
X458487Y254349D01*
X458712Y254252D01*
X458936Y254150D01*
X459156Y254042D01*
X459374Y253929D01*
X459589Y253811D01*
X459801Y253687D01*
X460010Y253559D01*
X460216Y253425D01*
X460418Y253286D01*
X460617Y253142D01*
X460812Y252993D01*
X461004Y252840D01*
X461192Y252682D01*
X461376Y252520D01*
X461555Y252352D01*
X461731Y252181D01*
X461902Y252005D01*
X462070Y251826D01*
X462232Y251642D01*
X462390Y251454D01*
X462543Y251262D01*
X462692Y251067D01*
X462836Y250868D01*
X462975Y250666D01*
X463109Y250460D01*
X463237Y250251D01*
X463361Y250039D01*
X463479Y249824D01*
X463592Y249606D01*
X463700Y249386D01*
X463802Y249162D01*
X463899Y248937D01*
X463990Y248709D01*
X464075Y248479D01*
X464155Y248247D01*
X464229Y248013D01*
X464298Y247777D01*
X464360Y247540D01*
X464417Y247301D01*
X464468Y247061D01*
X464513Y246820D01*
X464552Y246577D01*
X464585Y246334D01*
X464612Y246090D01*
X464633Y245846D01*
X464648Y245601D01*
X464657Y245355D01*
X464660Y245110D01*
X464657Y244865D01*
X464648Y244619D01*
X464633Y244374D01*
X464612Y244130D01*
X464585Y243886D01*
X464552Y243643D01*
X464513Y243400D01*
X464468Y243159D01*
X464417Y242919D01*
X464360Y242680D01*
X464298Y242443D01*
X464229Y242207D01*
X464155Y241973D01*
X464075Y241741D01*
X463990Y241511D01*
X463899Y241283D01*
X463802Y241058D01*
X463700Y240834D01*
X463592Y240614D01*
X463479Y240396D01*
X463361Y240181D01*
X463237Y239969D01*
X463109Y239760D01*
X462975Y239554D01*
X462836Y239352D01*
X462692Y239153D01*
X462543Y238958D01*
X462390Y238766D01*
X462232Y238578D01*
X462070Y238394D01*
X461902Y238215D01*
X461731Y238039D01*
X461555Y237868D01*
X461376Y237700D01*
X461192Y237538D01*
X461004Y237380D01*
X460812Y237227D01*
X460617Y237078D01*
X460418Y236934D01*
X460216Y236795D01*
X460010Y236661D01*
X459801Y236533D01*
X459589Y236409D01*
X459374Y236291D01*
X459156Y236178D01*
X458936Y236070D01*
X458712Y235968D01*
X458487Y235871D01*
X458259Y235780D01*
X458029Y235695D01*
X457797Y235615D01*
X457563Y235541D01*
X457327Y235472D01*
X457090Y235410D01*
X456851Y235353D01*
X456611Y235302D01*
X456370Y235257D01*
X456127Y235218D01*
X455884Y235185D01*
X455640Y235158D01*
X455396Y235137D01*
X455151Y235122D01*
X454905Y235113D01*
X454660Y235110D01*
X454415Y235113D01*
X454169Y235122D01*
X453924Y235137D01*
X453680Y235158D01*
X453436Y235185D01*
X453193Y235218D01*
X452950Y235257D01*
X452709Y235302D01*
X452469Y235353D01*
X452230Y235410D01*
X451993Y235472D01*
X451757Y235541D01*
X451523Y235615D01*
X451291Y235695D01*
X451061Y235780D01*
X450833Y235871D01*
X450608Y235968D01*
X450384Y236070D01*
X450164Y236178D01*
X449946Y236291D01*
X449731Y236409D01*
X449519Y236533D01*
X449310Y236661D01*
X449104Y236795D01*
X448902Y236934D01*
X448703Y237078D01*
X448508Y237227D01*
X448316Y237380D01*
X448128Y237538D01*
X447944Y237700D01*
X447765Y237868D01*
X447589Y238039D01*
X447418Y238215D01*
X447250Y238394D01*
X447088Y238578D01*
X446930Y238766D01*
X446777Y238958D01*
X446628Y239153D01*
X446484Y239352D01*
X446345Y239554D01*
X446211Y239760D01*
X446083Y239969D01*
X445959Y240181D01*
X445841Y240396D01*
X445728Y240614D01*
X445620Y240834D01*
X445518Y241058D01*
X445421Y241283D01*
X445330Y241511D01*
X445245Y241741D01*
X445165Y241973D01*
X445091Y242207D01*
X445022Y242443D01*
X444960Y242680D01*
X444903Y242919D01*
X444852Y243159D01*
X444807Y243400D01*
X444768Y243643D01*
X444735Y243886D01*
X444708Y244130D01*
X444687Y244374D01*
X444672Y244619D01*
X444663Y244865D01*
X444660Y245110D01*
X236380Y245110D02*
X236383Y245355D01*
X236392Y245601D01*
X236407Y245846D01*
X236428Y246090D01*
X236455Y246334D01*
X236488Y246577D01*
X236527Y246820D01*
X236572Y247061D01*
X236623Y247301D01*
X236680Y247540D01*
X236742Y247777D01*
X236811Y248013D01*
X236885Y248247D01*
X236965Y248479D01*
X237050Y248709D01*
X237141Y248937D01*
X237238Y249162D01*
X237340Y249386D01*
X237448Y249606D01*
X237561Y249824D01*
X237679Y250039D01*
X237803Y250251D01*
X237931Y250460D01*
X238065Y250666D01*
X238204Y250868D01*
X238348Y251067D01*
X238497Y251262D01*
X238650Y251454D01*
X238808Y251642D01*
X238970Y251826D01*
X239138Y252005D01*
X239309Y252181D01*
X239485Y252352D01*
X239664Y252520D01*
X239848Y252682D01*
X240036Y252840D01*
X240228Y252993D01*
X240423Y253142D01*
X240622Y253286D01*
X240824Y253425D01*
X241030Y253559D01*
X241239Y253687D01*
X241451Y253811D01*
X241666Y253929D01*
X241884Y254042D01*
X242104Y254150D01*
X242328Y254252D01*
X242553Y254349D01*
X242781Y254440D01*
X243011Y254525D01*
X243243Y254605D01*
X243477Y254679D01*
X243713Y254748D01*
X243950Y254810D01*
X244189Y254867D01*
X244429Y254918D01*
X244670Y254963D01*
X244913Y255002D01*
X245156Y255035D01*
X245400Y255062D01*
X245644Y255083D01*
X245889Y255098D01*
X246135Y255107D01*
X246380Y255110D01*
X246625Y255107D01*
X246871Y255098D01*
X247116Y255083D01*
X247360Y255062D01*
X247604Y255035D01*
X247847Y255002D01*
X248090Y254963D01*
X248331Y254918D01*
X248571Y254867D01*
X248810Y254810D01*
X249047Y254748D01*
X249283Y254679D01*
X249517Y254605D01*
X249749Y254525D01*
X249979Y254440D01*
X250207Y254349D01*
X250432Y254252D01*
X250656Y254150D01*
X250876Y254042D01*
X251094Y253929D01*
X251309Y253811D01*
X251521Y253687D01*
X251730Y253559D01*
X251936Y253425D01*
X252138Y253286D01*
X252337Y253142D01*
X252532Y252993D01*
X252724Y252840D01*
X252912Y252682D01*
X253096Y252520D01*
X253275Y252352D01*
X253451Y252181D01*
X253622Y252005D01*
X253790Y251826D01*
X253952Y251642D01*
X254110Y251454D01*
X254263Y251262D01*
X254412Y251067D01*
X254556Y250868D01*
X254695Y250666D01*
X254829Y250460D01*
X254957Y250251D01*
X255081Y250039D01*
X255199Y249824D01*
X255312Y249606D01*
X255420Y249386D01*
X255522Y249162D01*
X255619Y248937D01*
X255710Y248709D01*
X255795Y248479D01*
X255875Y248247D01*
X255949Y248013D01*
X256018Y247777D01*
X256080Y247540D01*
X256137Y247301D01*
X256188Y247061D01*
X256233Y246820D01*
X256272Y246577D01*
X256305Y246334D01*
X256332Y246090D01*
X256353Y245846D01*
X256368Y245601D01*
X256377Y245355D01*
X256380Y245110D01*
X256377Y244865D01*
X256368Y244619D01*
X256353Y244374D01*
X256332Y244130D01*
X256305Y243886D01*
X256272Y243643D01*
X256233Y243400D01*
X256188Y243159D01*
X256137Y242919D01*
X256080Y242680D01*
X256018Y242443D01*
X255949Y242207D01*
X255875Y241973D01*
X255795Y241741D01*
X255710Y241511D01*
X255619Y241283D01*
X255522Y241058D01*
X255420Y240834D01*
X255312Y240614D01*
X255199Y240396D01*
X255081Y240181D01*
X254957Y239969D01*
X254829Y239760D01*
X254695Y239554D01*
X254556Y239352D01*
X254412Y239153D01*
X254263Y238958D01*
X254110Y238766D01*
X253952Y238578D01*
X253790Y238394D01*
X253622Y238215D01*
X253451Y238039D01*
X253275Y237868D01*
X253096Y237700D01*
X252912Y237538D01*
X252724Y237380D01*
X252532Y237227D01*
X252337Y237078D01*
X252138Y236934D01*
X251936Y236795D01*
X251730Y236661D01*
X251521Y236533D01*
X251309Y236409D01*
X251094Y236291D01*
X250876Y236178D01*
X250656Y236070D01*
X250432Y235968D01*
X250207Y235871D01*
X249979Y235780D01*
X249749Y235695D01*
X249517Y235615D01*
X249283Y235541D01*
X249047Y235472D01*
X248810Y235410D01*
X248571Y235353D01*
X248331Y235302D01*
X248090Y235257D01*
X247847Y235218D01*
X247604Y235185D01*
X247360Y235158D01*
X247116Y235137D01*
X246871Y235122D01*
X246625Y235113D01*
X246380Y235110D01*
X246135Y235113D01*
X245889Y235122D01*
X245644Y235137D01*
X245400Y235158D01*
X245156Y235185D01*
X244913Y235218D01*
X244670Y235257D01*
X244429Y235302D01*
X244189Y235353D01*
X243950Y235410D01*
X243713Y235472D01*
X243477Y235541D01*
X243243Y235615D01*
X243011Y235695D01*
X242781Y235780D01*
X242553Y235871D01*
X242328Y235968D01*
X242104Y236070D01*
X241884Y236178D01*
X241666Y236291D01*
X241451Y236409D01*
X241239Y236533D01*
X241030Y236661D01*
X240824Y236795D01*
X240622Y236934D01*
X240423Y237078D01*
X240228Y237227D01*
X240036Y237380D01*
X239848Y237538D01*
X239664Y237700D01*
X239485Y237868D01*
X239309Y238039D01*
X239138Y238215D01*
X238970Y238394D01*
X238808Y238578D01*
X238650Y238766D01*
X238497Y238958D01*
X238348Y239153D01*
X238204Y239352D01*
X238065Y239554D01*
X237931Y239760D01*
X237803Y239969D01*
X237679Y240181D01*
X237561Y240396D01*
X237448Y240614D01*
X237340Y240834D01*
X237238Y241058D01*
X237141Y241283D01*
X237050Y241511D01*
X236965Y241741D01*
X236885Y241973D01*
X236811Y242207D01*
X236742Y242443D01*
X236680Y242680D01*
X236623Y242919D01*
X236572Y243159D01*
X236527Y243400D01*
X236488Y243643D01*
X236455Y243886D01*
X236428Y244130D01*
X236407Y244374D01*
X236392Y244619D01*
X236383Y244865D01*
X236380Y245110D01*
D11*
X160175Y28400D02*
X160175Y22200D01*
X166175Y22200D02*
X166175Y28400D01*
X166173Y28508D01*
X166167Y28616D01*
X166157Y28724D01*
X166144Y28832D01*
X166126Y28939D01*
X166105Y29045D01*
X166080Y29150D01*
X166051Y29255D01*
X166018Y29358D01*
X165982Y29460D01*
X165941Y29561D01*
X165898Y29660D01*
X165850Y29757D01*
X165800Y29853D01*
X165746Y29947D01*
X165688Y30038D01*
X165627Y30128D01*
X165563Y30216D01*
X165496Y30301D01*
X165426Y30383D01*
X165353Y30463D01*
X165277Y30540D01*
X165198Y30615D01*
X165117Y30686D01*
X165033Y30755D01*
X164947Y30821D01*
X164859Y30883D01*
X164768Y30942D01*
X164675Y30998D01*
X164580Y31051D01*
X164484Y31100D01*
X164385Y31145D01*
X164285Y31187D01*
X164184Y31225D01*
X164081Y31260D01*
X163978Y31291D01*
X163873Y31318D01*
X163767Y31341D01*
X163660Y31360D01*
X163553Y31376D01*
X163445Y31388D01*
X163337Y31396D01*
X163229Y31400D01*
X163121Y31400D01*
X163013Y31396D01*
X162905Y31388D01*
X162797Y31376D01*
X162690Y31360D01*
X162583Y31341D01*
X162477Y31318D01*
X162372Y31291D01*
X162269Y31260D01*
X162166Y31225D01*
X162065Y31187D01*
X161965Y31145D01*
X161866Y31100D01*
X161770Y31051D01*
X161675Y30998D01*
X161582Y30942D01*
X161491Y30883D01*
X161403Y30821D01*
X161317Y30755D01*
X161233Y30686D01*
X161152Y30615D01*
X161073Y30540D01*
X160997Y30463D01*
X160924Y30383D01*
X160854Y30301D01*
X160787Y30216D01*
X160723Y30128D01*
X160662Y30038D01*
X160604Y29947D01*
X160550Y29853D01*
X160500Y29757D01*
X160452Y29660D01*
X160409Y29561D01*
X160368Y29460D01*
X160332Y29358D01*
X160299Y29255D01*
X160270Y29150D01*
X160245Y29045D01*
X160224Y28939D01*
X160206Y28832D01*
X160193Y28724D01*
X160183Y28616D01*
X160177Y28508D01*
X160175Y28400D01*
X160175Y22200D02*
X160177Y22092D01*
X160183Y21984D01*
X160193Y21876D01*
X160206Y21768D01*
X160224Y21661D01*
X160245Y21555D01*
X160270Y21450D01*
X160299Y21345D01*
X160332Y21242D01*
X160368Y21140D01*
X160409Y21039D01*
X160452Y20940D01*
X160500Y20843D01*
X160550Y20747D01*
X160604Y20653D01*
X160662Y20562D01*
X160723Y20472D01*
X160787Y20384D01*
X160854Y20299D01*
X160924Y20217D01*
X160997Y20137D01*
X161073Y20060D01*
X161152Y19985D01*
X161233Y19914D01*
X161317Y19845D01*
X161403Y19779D01*
X161491Y19717D01*
X161582Y19658D01*
X161675Y19602D01*
X161770Y19549D01*
X161866Y19500D01*
X161965Y19455D01*
X162065Y19413D01*
X162166Y19375D01*
X162269Y19340D01*
X162372Y19309D01*
X162477Y19282D01*
X162583Y19259D01*
X162690Y19240D01*
X162797Y19224D01*
X162905Y19212D01*
X163013Y19204D01*
X163121Y19200D01*
X163229Y19200D01*
X163337Y19204D01*
X163445Y19212D01*
X163553Y19224D01*
X163660Y19240D01*
X163767Y19259D01*
X163873Y19282D01*
X163978Y19309D01*
X164081Y19340D01*
X164184Y19375D01*
X164285Y19413D01*
X164385Y19455D01*
X164484Y19500D01*
X164580Y19549D01*
X164675Y19602D01*
X164768Y19658D01*
X164859Y19717D01*
X164947Y19779D01*
X165033Y19845D01*
X165117Y19914D01*
X165198Y19985D01*
X165277Y20060D01*
X165353Y20137D01*
X165426Y20217D01*
X165496Y20299D01*
X165563Y20384D01*
X165627Y20472D01*
X165688Y20562D01*
X165746Y20653D01*
X165800Y20747D01*
X165850Y20843D01*
X165898Y20940D01*
X165941Y21039D01*
X165982Y21140D01*
X166018Y21242D01*
X166051Y21345D01*
X166080Y21450D01*
X166105Y21555D01*
X166126Y21661D01*
X166144Y21768D01*
X166157Y21876D01*
X166167Y21984D01*
X166173Y22092D01*
X166175Y22200D01*
X160175Y61550D02*
X160175Y72550D01*
X166175Y72550D02*
X166175Y61550D01*
X166173Y61442D01*
X166167Y61334D01*
X166157Y61226D01*
X166144Y61118D01*
X166126Y61011D01*
X166105Y60905D01*
X166080Y60800D01*
X166051Y60695D01*
X166018Y60592D01*
X165982Y60490D01*
X165941Y60389D01*
X165898Y60290D01*
X165850Y60193D01*
X165800Y60097D01*
X165746Y60003D01*
X165688Y59912D01*
X165627Y59822D01*
X165563Y59734D01*
X165496Y59649D01*
X165426Y59567D01*
X165353Y59487D01*
X165277Y59410D01*
X165198Y59335D01*
X165117Y59264D01*
X165033Y59195D01*
X164947Y59129D01*
X164859Y59067D01*
X164768Y59008D01*
X164675Y58952D01*
X164580Y58899D01*
X164484Y58850D01*
X164385Y58805D01*
X164285Y58763D01*
X164184Y58725D01*
X164081Y58690D01*
X163978Y58659D01*
X163873Y58632D01*
X163767Y58609D01*
X163660Y58590D01*
X163553Y58574D01*
X163445Y58562D01*
X163337Y58554D01*
X163229Y58550D01*
X163121Y58550D01*
X163013Y58554D01*
X162905Y58562D01*
X162797Y58574D01*
X162690Y58590D01*
X162583Y58609D01*
X162477Y58632D01*
X162372Y58659D01*
X162269Y58690D01*
X162166Y58725D01*
X162065Y58763D01*
X161965Y58805D01*
X161866Y58850D01*
X161770Y58899D01*
X161675Y58952D01*
X161582Y59008D01*
X161491Y59067D01*
X161403Y59129D01*
X161317Y59195D01*
X161233Y59264D01*
X161152Y59335D01*
X161073Y59410D01*
X160997Y59487D01*
X160924Y59567D01*
X160854Y59649D01*
X160787Y59734D01*
X160723Y59822D01*
X160662Y59912D01*
X160604Y60003D01*
X160550Y60097D01*
X160500Y60193D01*
X160452Y60290D01*
X160409Y60389D01*
X160368Y60490D01*
X160332Y60592D01*
X160299Y60695D01*
X160270Y60800D01*
X160245Y60905D01*
X160224Y61011D01*
X160206Y61118D01*
X160193Y61226D01*
X160183Y61334D01*
X160177Y61442D01*
X160175Y61550D01*
X160175Y72550D02*
X160177Y72658D01*
X160183Y72766D01*
X160193Y72874D01*
X160206Y72982D01*
X160224Y73089D01*
X160245Y73195D01*
X160270Y73300D01*
X160299Y73405D01*
X160332Y73508D01*
X160368Y73610D01*
X160409Y73711D01*
X160452Y73810D01*
X160500Y73907D01*
X160550Y74003D01*
X160604Y74097D01*
X160662Y74188D01*
X160723Y74278D01*
X160787Y74366D01*
X160854Y74451D01*
X160924Y74533D01*
X160997Y74613D01*
X161073Y74690D01*
X161152Y74765D01*
X161233Y74836D01*
X161317Y74905D01*
X161403Y74971D01*
X161491Y75033D01*
X161582Y75092D01*
X161675Y75148D01*
X161770Y75201D01*
X161866Y75250D01*
X161965Y75295D01*
X162065Y75337D01*
X162166Y75375D01*
X162269Y75410D01*
X162372Y75441D01*
X162477Y75468D01*
X162583Y75491D01*
X162690Y75510D01*
X162797Y75526D01*
X162905Y75538D01*
X163013Y75546D01*
X163121Y75550D01*
X163229Y75550D01*
X163337Y75546D01*
X163445Y75538D01*
X163553Y75526D01*
X163660Y75510D01*
X163767Y75491D01*
X163873Y75468D01*
X163978Y75441D01*
X164081Y75410D01*
X164184Y75375D01*
X164285Y75337D01*
X164385Y75295D01*
X164484Y75250D01*
X164580Y75201D01*
X164675Y75148D01*
X164768Y75092D01*
X164859Y75033D01*
X164947Y74971D01*
X165033Y74905D01*
X165117Y74836D01*
X165198Y74765D01*
X165277Y74690D01*
X165353Y74613D01*
X165426Y74533D01*
X165496Y74451D01*
X165563Y74366D01*
X165627Y74278D01*
X165688Y74188D01*
X165746Y74097D01*
X165800Y74003D01*
X165850Y73907D01*
X165898Y73810D01*
X165941Y73711D01*
X165982Y73610D01*
X166018Y73508D01*
X166051Y73405D01*
X166080Y73300D01*
X166105Y73195D01*
X166126Y73089D01*
X166144Y72982D01*
X166157Y72874D01*
X166167Y72766D01*
X166173Y72658D01*
X166175Y72550D01*
X246575Y28400D02*
X246575Y22200D01*
X252575Y22200D02*
X252575Y28400D01*
X252573Y28508D01*
X252567Y28616D01*
X252557Y28724D01*
X252544Y28832D01*
X252526Y28939D01*
X252505Y29045D01*
X252480Y29150D01*
X252451Y29255D01*
X252418Y29358D01*
X252382Y29460D01*
X252341Y29561D01*
X252298Y29660D01*
X252250Y29757D01*
X252200Y29853D01*
X252146Y29947D01*
X252088Y30038D01*
X252027Y30128D01*
X251963Y30216D01*
X251896Y30301D01*
X251826Y30383D01*
X251753Y30463D01*
X251677Y30540D01*
X251598Y30615D01*
X251517Y30686D01*
X251433Y30755D01*
X251347Y30821D01*
X251259Y30883D01*
X251168Y30942D01*
X251075Y30998D01*
X250980Y31051D01*
X250884Y31100D01*
X250785Y31145D01*
X250685Y31187D01*
X250584Y31225D01*
X250481Y31260D01*
X250378Y31291D01*
X250273Y31318D01*
X250167Y31341D01*
X250060Y31360D01*
X249953Y31376D01*
X249845Y31388D01*
X249737Y31396D01*
X249629Y31400D01*
X249521Y31400D01*
X249413Y31396D01*
X249305Y31388D01*
X249197Y31376D01*
X249090Y31360D01*
X248983Y31341D01*
X248877Y31318D01*
X248772Y31291D01*
X248669Y31260D01*
X248566Y31225D01*
X248465Y31187D01*
X248365Y31145D01*
X248266Y31100D01*
X248170Y31051D01*
X248075Y30998D01*
X247982Y30942D01*
X247891Y30883D01*
X247803Y30821D01*
X247717Y30755D01*
X247633Y30686D01*
X247552Y30615D01*
X247473Y30540D01*
X247397Y30463D01*
X247324Y30383D01*
X247254Y30301D01*
X247187Y30216D01*
X247123Y30128D01*
X247062Y30038D01*
X247004Y29947D01*
X246950Y29853D01*
X246900Y29757D01*
X246852Y29660D01*
X246809Y29561D01*
X246768Y29460D01*
X246732Y29358D01*
X246699Y29255D01*
X246670Y29150D01*
X246645Y29045D01*
X246624Y28939D01*
X246606Y28832D01*
X246593Y28724D01*
X246583Y28616D01*
X246577Y28508D01*
X246575Y28400D01*
X246575Y22200D02*
X246577Y22092D01*
X246583Y21984D01*
X246593Y21876D01*
X246606Y21768D01*
X246624Y21661D01*
X246645Y21555D01*
X246670Y21450D01*
X246699Y21345D01*
X246732Y21242D01*
X246768Y21140D01*
X246809Y21039D01*
X246852Y20940D01*
X246900Y20843D01*
X246950Y20747D01*
X247004Y20653D01*
X247062Y20562D01*
X247123Y20472D01*
X247187Y20384D01*
X247254Y20299D01*
X247324Y20217D01*
X247397Y20137D01*
X247473Y20060D01*
X247552Y19985D01*
X247633Y19914D01*
X247717Y19845D01*
X247803Y19779D01*
X247891Y19717D01*
X247982Y19658D01*
X248075Y19602D01*
X248170Y19549D01*
X248266Y19500D01*
X248365Y19455D01*
X248465Y19413D01*
X248566Y19375D01*
X248669Y19340D01*
X248772Y19309D01*
X248877Y19282D01*
X248983Y19259D01*
X249090Y19240D01*
X249197Y19224D01*
X249305Y19212D01*
X249413Y19204D01*
X249521Y19200D01*
X249629Y19200D01*
X249737Y19204D01*
X249845Y19212D01*
X249953Y19224D01*
X250060Y19240D01*
X250167Y19259D01*
X250273Y19282D01*
X250378Y19309D01*
X250481Y19340D01*
X250584Y19375D01*
X250685Y19413D01*
X250785Y19455D01*
X250884Y19500D01*
X250980Y19549D01*
X251075Y19602D01*
X251168Y19658D01*
X251259Y19717D01*
X251347Y19779D01*
X251433Y19845D01*
X251517Y19914D01*
X251598Y19985D01*
X251677Y20060D01*
X251753Y20137D01*
X251826Y20217D01*
X251896Y20299D01*
X251963Y20384D01*
X252027Y20472D01*
X252088Y20562D01*
X252146Y20653D01*
X252200Y20747D01*
X252250Y20843D01*
X252298Y20940D01*
X252341Y21039D01*
X252382Y21140D01*
X252418Y21242D01*
X252451Y21345D01*
X252480Y21450D01*
X252505Y21555D01*
X252526Y21661D01*
X252544Y21768D01*
X252557Y21876D01*
X252567Y21984D01*
X252573Y22092D01*
X252575Y22200D01*
X246575Y61550D02*
X246575Y72550D01*
X252575Y72550D02*
X252575Y61550D01*
X252573Y61442D01*
X252567Y61334D01*
X252557Y61226D01*
X252544Y61118D01*
X252526Y61011D01*
X252505Y60905D01*
X252480Y60800D01*
X252451Y60695D01*
X252418Y60592D01*
X252382Y60490D01*
X252341Y60389D01*
X252298Y60290D01*
X252250Y60193D01*
X252200Y60097D01*
X252146Y60003D01*
X252088Y59912D01*
X252027Y59822D01*
X251963Y59734D01*
X251896Y59649D01*
X251826Y59567D01*
X251753Y59487D01*
X251677Y59410D01*
X251598Y59335D01*
X251517Y59264D01*
X251433Y59195D01*
X251347Y59129D01*
X251259Y59067D01*
X251168Y59008D01*
X251075Y58952D01*
X250980Y58899D01*
X250884Y58850D01*
X250785Y58805D01*
X250685Y58763D01*
X250584Y58725D01*
X250481Y58690D01*
X250378Y58659D01*
X250273Y58632D01*
X250167Y58609D01*
X250060Y58590D01*
X249953Y58574D01*
X249845Y58562D01*
X249737Y58554D01*
X249629Y58550D01*
X249521Y58550D01*
X249413Y58554D01*
X249305Y58562D01*
X249197Y58574D01*
X249090Y58590D01*
X248983Y58609D01*
X248877Y58632D01*
X248772Y58659D01*
X248669Y58690D01*
X248566Y58725D01*
X248465Y58763D01*
X248365Y58805D01*
X248266Y58850D01*
X248170Y58899D01*
X248075Y58952D01*
X247982Y59008D01*
X247891Y59067D01*
X247803Y59129D01*
X247717Y59195D01*
X247633Y59264D01*
X247552Y59335D01*
X247473Y59410D01*
X247397Y59487D01*
X247324Y59567D01*
X247254Y59649D01*
X247187Y59734D01*
X247123Y59822D01*
X247062Y59912D01*
X247004Y60003D01*
X246950Y60097D01*
X246900Y60193D01*
X246852Y60290D01*
X246809Y60389D01*
X246768Y60490D01*
X246732Y60592D01*
X246699Y60695D01*
X246670Y60800D01*
X246645Y60905D01*
X246624Y61011D01*
X246606Y61118D01*
X246593Y61226D01*
X246583Y61334D01*
X246577Y61442D01*
X246575Y61550D01*
X246575Y72550D02*
X246577Y72658D01*
X246583Y72766D01*
X246593Y72874D01*
X246606Y72982D01*
X246624Y73089D01*
X246645Y73195D01*
X246670Y73300D01*
X246699Y73405D01*
X246732Y73508D01*
X246768Y73610D01*
X246809Y73711D01*
X246852Y73810D01*
X246900Y73907D01*
X246950Y74003D01*
X247004Y74097D01*
X247062Y74188D01*
X247123Y74278D01*
X247187Y74366D01*
X247254Y74451D01*
X247324Y74533D01*
X247397Y74613D01*
X247473Y74690D01*
X247552Y74765D01*
X247633Y74836D01*
X247717Y74905D01*
X247803Y74971D01*
X247891Y75033D01*
X247982Y75092D01*
X248075Y75148D01*
X248170Y75201D01*
X248266Y75250D01*
X248365Y75295D01*
X248465Y75337D01*
X248566Y75375D01*
X248669Y75410D01*
X248772Y75441D01*
X248877Y75468D01*
X248983Y75491D01*
X249090Y75510D01*
X249197Y75526D01*
X249305Y75538D01*
X249413Y75546D01*
X249521Y75550D01*
X249629Y75550D01*
X249737Y75546D01*
X249845Y75538D01*
X249953Y75526D01*
X250060Y75510D01*
X250167Y75491D01*
X250273Y75468D01*
X250378Y75441D01*
X250481Y75410D01*
X250584Y75375D01*
X250685Y75337D01*
X250785Y75295D01*
X250884Y75250D01*
X250980Y75201D01*
X251075Y75148D01*
X251168Y75092D01*
X251259Y75033D01*
X251347Y74971D01*
X251433Y74905D01*
X251517Y74836D01*
X251598Y74765D01*
X251677Y74690D01*
X251753Y74613D01*
X251826Y74533D01*
X251896Y74451D01*
X251963Y74366D01*
X252027Y74278D01*
X252088Y74188D01*
X252146Y74097D01*
X252200Y74003D01*
X252250Y73907D01*
X252298Y73810D01*
X252341Y73711D01*
X252382Y73610D01*
X252418Y73508D01*
X252451Y73405D01*
X252480Y73300D01*
X252505Y73195D01*
X252526Y73089D01*
X252544Y72982D01*
X252557Y72874D01*
X252567Y72766D01*
X252573Y72658D01*
X252575Y72550D01*
D10*
X174225Y61750D02*
X174227Y61863D01*
X174233Y61977D01*
X174243Y62090D01*
X174257Y62202D01*
X174274Y62314D01*
X174296Y62426D01*
X174322Y62536D01*
X174351Y62646D01*
X174384Y62754D01*
X174421Y62862D01*
X174462Y62967D01*
X174506Y63072D01*
X174554Y63175D01*
X174605Y63276D01*
X174660Y63375D01*
X174719Y63472D01*
X174781Y63567D01*
X174846Y63660D01*
X174914Y63751D01*
X174985Y63839D01*
X175060Y63925D01*
X175137Y64008D01*
X175217Y64088D01*
X175300Y64165D01*
X175386Y64240D01*
X175474Y64311D01*
X175565Y64379D01*
X175658Y64444D01*
X175753Y64506D01*
X175850Y64565D01*
X175949Y64620D01*
X176050Y64671D01*
X176153Y64719D01*
X176258Y64763D01*
X176363Y64804D01*
X176471Y64841D01*
X176579Y64874D01*
X176689Y64903D01*
X176799Y64929D01*
X176911Y64951D01*
X177023Y64968D01*
X177135Y64982D01*
X177248Y64992D01*
X177362Y64998D01*
X177475Y65000D01*
X177588Y64998D01*
X177702Y64992D01*
X177815Y64982D01*
X177927Y64968D01*
X178039Y64951D01*
X178151Y64929D01*
X178261Y64903D01*
X178371Y64874D01*
X178479Y64841D01*
X178587Y64804D01*
X178692Y64763D01*
X178797Y64719D01*
X178900Y64671D01*
X179001Y64620D01*
X179100Y64565D01*
X179197Y64506D01*
X179292Y64444D01*
X179385Y64379D01*
X179476Y64311D01*
X179564Y64240D01*
X179650Y64165D01*
X179733Y64088D01*
X179813Y64008D01*
X179890Y63925D01*
X179965Y63839D01*
X180036Y63751D01*
X180104Y63660D01*
X180169Y63567D01*
X180231Y63472D01*
X180290Y63375D01*
X180345Y63276D01*
X180396Y63175D01*
X180444Y63072D01*
X180488Y62967D01*
X180529Y62862D01*
X180566Y62754D01*
X180599Y62646D01*
X180628Y62536D01*
X180654Y62426D01*
X180676Y62314D01*
X180693Y62202D01*
X180707Y62090D01*
X180717Y61977D01*
X180723Y61863D01*
X180725Y61750D01*
X180723Y61637D01*
X180717Y61523D01*
X180707Y61410D01*
X180693Y61298D01*
X180676Y61186D01*
X180654Y61074D01*
X180628Y60964D01*
X180599Y60854D01*
X180566Y60746D01*
X180529Y60638D01*
X180488Y60533D01*
X180444Y60428D01*
X180396Y60325D01*
X180345Y60224D01*
X180290Y60125D01*
X180231Y60028D01*
X180169Y59933D01*
X180104Y59840D01*
X180036Y59749D01*
X179965Y59661D01*
X179890Y59575D01*
X179813Y59492D01*
X179733Y59412D01*
X179650Y59335D01*
X179564Y59260D01*
X179476Y59189D01*
X179385Y59121D01*
X179292Y59056D01*
X179197Y58994D01*
X179100Y58935D01*
X179001Y58880D01*
X178900Y58829D01*
X178797Y58781D01*
X178692Y58737D01*
X178587Y58696D01*
X178479Y58659D01*
X178371Y58626D01*
X178261Y58597D01*
X178151Y58571D01*
X178039Y58549D01*
X177927Y58532D01*
X177815Y58518D01*
X177702Y58508D01*
X177588Y58502D01*
X177475Y58500D01*
X177362Y58502D01*
X177248Y58508D01*
X177135Y58518D01*
X177023Y58532D01*
X176911Y58549D01*
X176799Y58571D01*
X176689Y58597D01*
X176579Y58626D01*
X176471Y58659D01*
X176363Y58696D01*
X176258Y58737D01*
X176153Y58781D01*
X176050Y58829D01*
X175949Y58880D01*
X175850Y58935D01*
X175753Y58994D01*
X175658Y59056D01*
X175565Y59121D01*
X175474Y59189D01*
X175386Y59260D01*
X175300Y59335D01*
X175217Y59412D01*
X175137Y59492D01*
X175060Y59575D01*
X174985Y59661D01*
X174914Y59749D01*
X174846Y59840D01*
X174781Y59933D01*
X174719Y60028D01*
X174660Y60125D01*
X174605Y60224D01*
X174554Y60325D01*
X174506Y60428D01*
X174462Y60533D01*
X174421Y60638D01*
X174384Y60746D01*
X174351Y60854D01*
X174322Y60964D01*
X174296Y61074D01*
X174274Y61186D01*
X174257Y61298D01*
X174243Y61410D01*
X174233Y61523D01*
X174227Y61637D01*
X174225Y61750D01*
X232025Y61750D02*
X232027Y61863D01*
X232033Y61977D01*
X232043Y62090D01*
X232057Y62202D01*
X232074Y62314D01*
X232096Y62426D01*
X232122Y62536D01*
X232151Y62646D01*
X232184Y62754D01*
X232221Y62862D01*
X232262Y62967D01*
X232306Y63072D01*
X232354Y63175D01*
X232405Y63276D01*
X232460Y63375D01*
X232519Y63472D01*
X232581Y63567D01*
X232646Y63660D01*
X232714Y63751D01*
X232785Y63839D01*
X232860Y63925D01*
X232937Y64008D01*
X233017Y64088D01*
X233100Y64165D01*
X233186Y64240D01*
X233274Y64311D01*
X233365Y64379D01*
X233458Y64444D01*
X233553Y64506D01*
X233650Y64565D01*
X233749Y64620D01*
X233850Y64671D01*
X233953Y64719D01*
X234058Y64763D01*
X234163Y64804D01*
X234271Y64841D01*
X234379Y64874D01*
X234489Y64903D01*
X234599Y64929D01*
X234711Y64951D01*
X234823Y64968D01*
X234935Y64982D01*
X235048Y64992D01*
X235162Y64998D01*
X235275Y65000D01*
X235388Y64998D01*
X235502Y64992D01*
X235615Y64982D01*
X235727Y64968D01*
X235839Y64951D01*
X235951Y64929D01*
X236061Y64903D01*
X236171Y64874D01*
X236279Y64841D01*
X236387Y64804D01*
X236492Y64763D01*
X236597Y64719D01*
X236700Y64671D01*
X236801Y64620D01*
X236900Y64565D01*
X236997Y64506D01*
X237092Y64444D01*
X237185Y64379D01*
X237276Y64311D01*
X237364Y64240D01*
X237450Y64165D01*
X237533Y64088D01*
X237613Y64008D01*
X237690Y63925D01*
X237765Y63839D01*
X237836Y63751D01*
X237904Y63660D01*
X237969Y63567D01*
X238031Y63472D01*
X238090Y63375D01*
X238145Y63276D01*
X238196Y63175D01*
X238244Y63072D01*
X238288Y62967D01*
X238329Y62862D01*
X238366Y62754D01*
X238399Y62646D01*
X238428Y62536D01*
X238454Y62426D01*
X238476Y62314D01*
X238493Y62202D01*
X238507Y62090D01*
X238517Y61977D01*
X238523Y61863D01*
X238525Y61750D01*
X238523Y61637D01*
X238517Y61523D01*
X238507Y61410D01*
X238493Y61298D01*
X238476Y61186D01*
X238454Y61074D01*
X238428Y60964D01*
X238399Y60854D01*
X238366Y60746D01*
X238329Y60638D01*
X238288Y60533D01*
X238244Y60428D01*
X238196Y60325D01*
X238145Y60224D01*
X238090Y60125D01*
X238031Y60028D01*
X237969Y59933D01*
X237904Y59840D01*
X237836Y59749D01*
X237765Y59661D01*
X237690Y59575D01*
X237613Y59492D01*
X237533Y59412D01*
X237450Y59335D01*
X237364Y59260D01*
X237276Y59189D01*
X237185Y59121D01*
X237092Y59056D01*
X236997Y58994D01*
X236900Y58935D01*
X236801Y58880D01*
X236700Y58829D01*
X236597Y58781D01*
X236492Y58737D01*
X236387Y58696D01*
X236279Y58659D01*
X236171Y58626D01*
X236061Y58597D01*
X235951Y58571D01*
X235839Y58549D01*
X235727Y58532D01*
X235615Y58518D01*
X235502Y58508D01*
X235388Y58502D01*
X235275Y58500D01*
X235162Y58502D01*
X235048Y58508D01*
X234935Y58518D01*
X234823Y58532D01*
X234711Y58549D01*
X234599Y58571D01*
X234489Y58597D01*
X234379Y58626D01*
X234271Y58659D01*
X234163Y58696D01*
X234058Y58737D01*
X233953Y58781D01*
X233850Y58829D01*
X233749Y58880D01*
X233650Y58935D01*
X233553Y58994D01*
X233458Y59056D01*
X233365Y59121D01*
X233274Y59189D01*
X233186Y59260D01*
X233100Y59335D01*
X233017Y59412D01*
X232937Y59492D01*
X232860Y59575D01*
X232785Y59661D01*
X232714Y59749D01*
X232646Y59840D01*
X232581Y59933D01*
X232519Y60028D01*
X232460Y60125D01*
X232405Y60224D01*
X232354Y60325D01*
X232306Y60428D01*
X232262Y60533D01*
X232221Y60638D01*
X232184Y60746D01*
X232151Y60854D01*
X232122Y60964D01*
X232096Y61074D01*
X232074Y61186D01*
X232057Y61298D01*
X232043Y61410D01*
X232033Y61523D01*
X232027Y61637D01*
X232025Y61750D01*
D12*
X116600Y326600D02*
X105451Y323287D01*
X91884Y318065D01*
X78824Y311681D01*
X66370Y304183D01*
X54617Y295628D01*
X43654Y286081D01*
X33565Y275615D01*
X24427Y264310D01*
X16309Y252251D01*
X9272Y239530D01*
X3371Y226245D01*
X-1349Y212496D01*
X-4854Y198388D01*
X-7115Y184028D01*
X-8116Y169525D01*
X-7850Y154991D01*
X-6317Y140535D01*
X-3531Y126267D01*
X488Y112297D01*
X5710Y98730D01*
X12094Y85670D01*
X19592Y73216D01*
X28147Y61463D01*
X37694Y50500D01*
X48160Y40412D01*
X59465Y31273D01*
X71524Y23155D01*
X84245Y16118D01*
X97530Y10218D01*
X111279Y5497D01*
X125388Y1993D01*
X139748Y-269D01*
X154250Y-1270D01*
X733300Y0D01*
X742025Y205D01*
X756506Y1561D01*
X770813Y4173D01*
X784837Y8023D01*
X798473Y13080D01*
X811617Y19307D01*
X824167Y26655D01*
X836029Y35069D01*
X847113Y44485D01*
X857334Y54831D01*
X866615Y66029D01*
X874884Y77992D01*
X882079Y90631D01*
X888145Y103849D01*
X893036Y117546D01*
X896715Y131616D01*
X899153Y145954D01*
X900333Y160450D01*
X900244Y174993D01*
X898889Y189473D01*
X896276Y203780D01*
X892427Y217805D01*
X887369Y231441D01*
X881143Y244584D01*
X873795Y257134D01*
X865381Y268997D01*
X855965Y280081D01*
X845619Y290302D01*
X834421Y299582D01*
X822457Y307852D01*
X809818Y315047D01*
X796600Y321113D01*
X782904Y326004D01*
X768833Y329682D01*
X754496Y332121D01*
X740000Y333300D01*
X739092Y343471D01*
X737301Y353525D01*
X734641Y363384D01*
X731131Y372973D01*
X726800Y382221D01*
X721678Y391055D01*
X715806Y399410D01*
X709229Y407221D01*
X701995Y414429D01*
X694161Y420979D01*
X685786Y426821D01*
X676933Y431912D01*
X667671Y436211D01*
X658069Y439687D01*
X648201Y442312D01*
X638141Y444068D01*
X627967Y444940D01*
X617755Y444922D01*
X607584Y444014D01*
X597531Y442223D01*
X587672Y439563D01*
X578082Y436053D01*
X568835Y431721D01*
X560000Y426600D01*
X550557Y444579D01*
X539583Y461667D01*
X527162Y477733D01*
X513387Y492655D01*
X498365Y506320D01*
X482208Y518624D01*
X465041Y529473D01*
X446993Y538784D01*
X428203Y546487D01*
X408813Y552523D01*
X388970Y556846D01*
X368826Y559423D01*
X348534Y560235D01*
X328249Y559275D01*
X308125Y556551D01*
X288314Y552083D01*
X268969Y545906D01*
X250235Y538066D01*
X232256Y528623D01*
X215168Y517649D01*
X199102Y505227D01*
X184180Y491453D01*
X170515Y476430D01*
X158211Y460274D01*
X147362Y443106D01*
X138051Y425059D01*
X130348Y406268D01*
X124312Y386878D01*
X119989Y367036D01*
X117412Y346892D01*
X116600Y326600D01*
X246575Y61550D02*
X246586Y61289D01*
X246621Y61029D01*
X246677Y60774D01*
X246756Y60524D01*
X246856Y60282D01*
X246977Y60050D01*
X247118Y59829D01*
X247277Y59622D01*
X247454Y59429D01*
X247647Y59252D01*
X247854Y59093D01*
X248075Y58952D01*
X248307Y58831D01*
X248549Y58731D01*
X248799Y58652D01*
X249054Y58596D01*
X249314Y58561D01*
X249575Y58550D01*
X249836Y58561D01*
X250096Y58596D01*
X250351Y58652D01*
X250601Y58731D01*
X250843Y58831D01*
X251075Y58952D01*
X251296Y59093D01*
X251503Y59252D01*
X251696Y59429D01*
X251873Y59622D01*
X252032Y59829D01*
X252173Y60050D01*
X252294Y60282D01*
X252394Y60524D01*
X252473Y60774D01*
X252529Y61029D01*
X252564Y61289D01*
X252575Y61550D01*
X252575Y72550D01*
X252564Y72811D01*
X252529Y73071D01*
X252473Y73326D01*
X252394Y73576D01*
X252294Y73818D01*
X252173Y74050D01*
X252032Y74271D01*
X251873Y74478D01*
X251696Y74671D01*
X251503Y74848D01*
X251296Y75007D01*
X251075Y75148D01*
X250843Y75269D01*
X250601Y75369D01*
X250351Y75448D01*
X250096Y75504D01*
X249836Y75539D01*
X249575Y75550D01*
X249314Y75539D01*
X249054Y75504D01*
X248799Y75448D01*
X248549Y75369D01*
X248307Y75269D01*
X248075Y75148D01*
X247854Y75007D01*
X247647Y74848D01*
X247454Y74671D01*
X247277Y74478D01*
X247118Y74271D01*
X246977Y74050D01*
X246856Y73818D01*
X246756Y73576D01*
X246677Y73326D01*
X246621Y73071D01*
X246586Y72811D01*
X246575Y72550D01*
X246575Y61550D01*
X246575Y22200D02*
X246586Y21939D01*
X246621Y21679D01*
X246677Y21424D01*
X246756Y21174D01*
X246856Y20932D01*
X246977Y20700D01*
X247118Y20479D01*
X247277Y20272D01*
X247454Y20079D01*
X247647Y19902D01*
X247854Y19743D01*
X248075Y19602D01*
X248307Y19481D01*
X248549Y19381D01*
X248799Y19302D01*
X249054Y19246D01*
X249314Y19211D01*
X249575Y19200D01*
X249836Y19211D01*
X250096Y19246D01*
X250351Y19302D01*
X250601Y19381D01*
X250843Y19481D01*
X251075Y19602D01*
X251296Y19743D01*
X251503Y19902D01*
X251696Y20079D01*
X251873Y20272D01*
X252032Y20479D01*
X252173Y20700D01*
X252294Y20932D01*
X252394Y21174D01*
X252473Y21424D01*
X252529Y21679D01*
X252564Y21939D01*
X252575Y22200D01*
X252575Y28400D01*
X252564Y28661D01*
X252529Y28921D01*
X252473Y29176D01*
X252394Y29426D01*
X252294Y29668D01*
X252173Y29900D01*
X252032Y30121D01*
X251873Y30328D01*
X251696Y30521D01*
X251503Y30698D01*
X251296Y30857D01*
X251075Y30998D01*
X250843Y31119D01*
X250601Y31219D01*
X250351Y31298D01*
X250096Y31354D01*
X249836Y31389D01*
X249575Y31400D01*
X249314Y31389D01*
X249054Y31354D01*
X248799Y31298D01*
X248549Y31219D01*
X248307Y31119D01*
X248075Y30998D01*
X247854Y30857D01*
X247647Y30698D01*
X247454Y30521D01*
X247277Y30328D01*
X247118Y30121D01*
X246977Y29900D01*
X246856Y29668D01*
X246756Y29426D01*
X246677Y29176D01*
X246621Y28921D01*
X246586Y28661D01*
X246575Y28400D01*
X246575Y22200D01*
X160175Y61550D02*
X160186Y61289D01*
X160221Y61029D01*
X160277Y60774D01*
X160356Y60524D01*
X160456Y60282D01*
X160577Y60050D01*
X160718Y59829D01*
X160877Y59622D01*
X161054Y59429D01*
X161247Y59252D01*
X161454Y59093D01*
X161675Y58952D01*
X161907Y58831D01*
X162149Y58731D01*
X162399Y58652D01*
X162654Y58596D01*
X162914Y58561D01*
X163175Y58550D01*
X163436Y58561D01*
X163696Y58596D01*
X163951Y58652D01*
X164201Y58731D01*
X164443Y58831D01*
X164675Y58952D01*
X164896Y59093D01*
X165103Y59252D01*
X165296Y59429D01*
X165473Y59622D01*
X165632Y59829D01*
X165773Y60050D01*
X165894Y60282D01*
X165994Y60524D01*
X166073Y60774D01*
X166129Y61029D01*
X166164Y61289D01*
X166175Y61550D01*
X166175Y72550D01*
X166164Y72811D01*
X166129Y73071D01*
X166073Y73326D01*
X165994Y73576D01*
X165894Y73818D01*
X165773Y74050D01*
X165632Y74271D01*
X165473Y74478D01*
X165296Y74671D01*
X165103Y74848D01*
X164896Y75007D01*
X164675Y75148D01*
X164443Y75269D01*
X164201Y75369D01*
X163951Y75448D01*
X163696Y75504D01*
X163436Y75539D01*
X163175Y75550D01*
X162914Y75539D01*
X162654Y75504D01*
X162399Y75448D01*
X162149Y75369D01*
X161907Y75269D01*
X161675Y75148D01*
X161454Y75007D01*
X161247Y74848D01*
X161054Y74671D01*
X160877Y74478D01*
X160718Y74271D01*
X160577Y74050D01*
X160456Y73818D01*
X160356Y73576D01*
X160277Y73326D01*
X160221Y73071D01*
X160186Y72811D01*
X160175Y72550D01*
X160175Y61550D01*
X160175Y22200D02*
X160186Y21939D01*
X160221Y21679D01*
X160277Y21424D01*
X160356Y21174D01*
X160456Y20932D01*
X160577Y20700D01*
X160718Y20479D01*
X160877Y20272D01*
X161054Y20079D01*
X161247Y19902D01*
X161454Y19743D01*
X161675Y19602D01*
X161907Y19481D01*
X162149Y19381D01*
X162399Y19302D01*
X162654Y19246D01*
X162914Y19211D01*
X163175Y19200D01*
X163436Y19211D01*
X163696Y19246D01*
X163951Y19302D01*
X164201Y19381D01*
X164443Y19481D01*
X164675Y19602D01*
X164896Y19743D01*
X165103Y19902D01*
X165296Y20079D01*
X165473Y20272D01*
X165632Y20479D01*
X165773Y20700D01*
X165894Y20932D01*
X165994Y21174D01*
X166073Y21424D01*
X166129Y21679D01*
X166164Y21939D01*
X166175Y22200D01*
X166175Y28400D01*
X166164Y28661D01*
X166129Y28921D01*
X166073Y29176D01*
X165994Y29426D01*
X165894Y29668D01*
X165773Y29900D01*
X165632Y30121D01*
X165473Y30328D01*
X165296Y30521D01*
X165103Y30698D01*
X164896Y30857D01*
X164675Y30998D01*
X164443Y31119D01*
X164201Y31219D01*
X163951Y31298D01*
X163696Y31354D01*
X163436Y31389D01*
X163175Y31400D01*
X162914Y31389D01*
X162654Y31354D01*
X162399Y31298D01*
X162149Y31219D01*
X161907Y31119D01*
X161675Y30998D01*
X161454Y30857D01*
X161247Y30698D01*
X161054Y30521D01*
X160877Y30328D01*
X160718Y30121D01*
X160577Y29900D01*
X160456Y29668D01*
X160356Y29426D01*
X160277Y29176D01*
X160221Y28921D01*
X160186Y28661D01*
X160175Y28400D01*
X160175Y22200D01*
X256380Y475813D02*
X256304Y474944D01*
X256152Y474084D01*
X255926Y473240D01*
X255628Y472420D01*
X255259Y471628D01*
X254822Y470872D01*
X254321Y470157D01*
X253760Y469488D01*
X253142Y468870D01*
X252473Y468309D01*
X251758Y467808D01*
X251002Y467371D01*
X250210Y467002D01*
X249390Y466704D01*
X248546Y466478D01*
X247687Y466326D01*
X246817Y466250D01*
X245943Y466250D01*
X245074Y466326D01*
X244214Y466478D01*
X243370Y466704D01*
X242550Y467002D01*
X241758Y467371D01*
X241002Y467808D01*
X240287Y468309D01*
X239618Y468870D01*
X239000Y469488D01*
X238439Y470157D01*
X237938Y470872D01*
X237501Y471628D01*
X237132Y472420D01*
X236834Y473240D01*
X236608Y474084D01*
X236456Y474944D01*
X236380Y475813D01*
X236380Y476687D01*
X236456Y477557D01*
X236608Y478416D01*
X236834Y479260D01*
X237132Y480080D01*
X237501Y480872D01*
X237938Y481628D01*
X238439Y482343D01*
X239000Y483012D01*
X239618Y483630D01*
X240287Y484191D01*
X241002Y484692D01*
X241758Y485129D01*
X242550Y485498D01*
X243370Y485796D01*
X244214Y486022D01*
X245074Y486174D01*
X245943Y486250D01*
X246817Y486250D01*
X247687Y486174D01*
X248546Y486022D01*
X249390Y485796D01*
X250210Y485498D01*
X251002Y485129D01*
X251758Y484692D01*
X252473Y484191D01*
X253142Y483630D01*
X253760Y483012D01*
X254321Y482343D01*
X254822Y481628D01*
X255259Y480872D01*
X255628Y480080D01*
X255926Y479260D01*
X256152Y478416D01*
X256304Y477557D01*
X256380Y476687D01*
X256380Y475813D01*
X464660Y475813D02*
X464584Y474944D01*
X464432Y474084D01*
X464206Y473240D01*
X463908Y472420D01*
X463539Y471628D01*
X463102Y470872D01*
X462601Y470157D01*
X462040Y469488D01*
X461422Y468870D01*
X460753Y468309D01*
X460038Y467808D01*
X459282Y467371D01*
X458490Y467002D01*
X457670Y466704D01*
X456826Y466478D01*
X455967Y466326D01*
X455097Y466250D01*
X454223Y466250D01*
X453354Y466326D01*
X452494Y466478D01*
X451650Y466704D01*
X450830Y467002D01*
X450038Y467371D01*
X449282Y467808D01*
X448567Y468309D01*
X447898Y468870D01*
X447280Y469488D01*
X446719Y470157D01*
X446218Y470872D01*
X445781Y471628D01*
X445412Y472420D01*
X445114Y473240D01*
X444888Y474084D01*
X444736Y474944D01*
X444660Y475813D01*
X444660Y476687D01*
X444736Y477557D01*
X444888Y478416D01*
X445114Y479260D01*
X445412Y480080D01*
X445781Y480872D01*
X446218Y481628D01*
X446719Y482343D01*
X447280Y483012D01*
X447898Y483630D01*
X448567Y484191D01*
X449282Y484692D01*
X450038Y485129D01*
X450830Y485498D01*
X451650Y485796D01*
X452494Y486022D01*
X453354Y486174D01*
X454223Y486250D01*
X455097Y486250D01*
X455967Y486174D01*
X456826Y486022D01*
X457670Y485796D01*
X458490Y485498D01*
X459282Y485129D01*
X460038Y484692D01*
X460753Y484191D01*
X461422Y483630D01*
X462040Y483012D01*
X462601Y482343D01*
X463102Y481628D01*
X463539Y480872D01*
X463908Y480080D01*
X464206Y479260D01*
X464432Y478416D01*
X464584Y477557D01*
X464660Y476687D01*
X464660Y475813D01*
X464660Y244673D02*
X464584Y243804D01*
X464432Y242944D01*
X464206Y242100D01*
X463908Y241280D01*
X463539Y240488D01*
X463102Y239732D01*
X462601Y239017D01*
X462040Y238348D01*
X461422Y237730D01*
X460753Y237169D01*
X460038Y236668D01*
X459282Y236231D01*
X458490Y235862D01*
X457670Y235564D01*
X456826Y235338D01*
X455967Y235186D01*
X455097Y235110D01*
X454223Y235110D01*
X453354Y235186D01*
X452494Y235338D01*
X451650Y235564D01*
X450830Y235862D01*
X450038Y236231D01*
X449282Y236668D01*
X448567Y237169D01*
X447898Y237730D01*
X447280Y238348D01*
X446719Y239017D01*
X446218Y239732D01*
X445781Y240488D01*
X445412Y241280D01*
X445114Y242100D01*
X444888Y242944D01*
X444736Y243804D01*
X444660Y244673D01*
X444660Y245547D01*
X444736Y246417D01*
X444888Y247276D01*
X445114Y248120D01*
X445412Y248940D01*
X445781Y249732D01*
X446218Y250488D01*
X446719Y251203D01*
X447280Y251872D01*
X447898Y252490D01*
X448567Y253051D01*
X449282Y253552D01*
X450038Y253989D01*
X450830Y254358D01*
X451650Y254656D01*
X452494Y254882D01*
X453354Y255034D01*
X454223Y255110D01*
X455097Y255110D01*
X455967Y255034D01*
X456826Y254882D01*
X457670Y254656D01*
X458490Y254358D01*
X459282Y253989D01*
X460038Y253552D01*
X460753Y253051D01*
X461422Y252490D01*
X462040Y251872D01*
X462601Y251203D01*
X463102Y250488D01*
X463539Y249732D01*
X463908Y248940D01*
X464206Y248120D01*
X464432Y247276D01*
X464584Y246417D01*
X464660Y245547D01*
X464660Y244673D01*
X256380Y244673D02*
X256304Y243804D01*
X256152Y242944D01*
X255926Y242100D01*
X255628Y241280D01*
X255259Y240488D01*
X254822Y239732D01*
X254321Y239017D01*
X253760Y238348D01*
X253142Y237730D01*
X252473Y237169D01*
X251758Y236668D01*
X251002Y236231D01*
X250210Y235862D01*
X249390Y235564D01*
X248546Y235338D01*
X247687Y235186D01*
X246817Y235110D01*
X245943Y235110D01*
X245074Y235186D01*
X244214Y235338D01*
X243370Y235564D01*
X242550Y235862D01*
X241758Y236231D01*
X241002Y236668D01*
X240287Y237169D01*
X239618Y237730D01*
X239000Y238348D01*
X238439Y239017D01*
X237938Y239732D01*
X237501Y240488D01*
X237132Y241280D01*
X236834Y242100D01*
X236608Y242944D01*
X236456Y243804D01*
X236380Y244673D01*
X236380Y245547D01*
X236456Y246417D01*
X236608Y247276D01*
X236834Y248120D01*
X237132Y248940D01*
X237501Y249732D01*
X237938Y250488D01*
X238439Y251203D01*
X239000Y251872D01*
X239618Y252490D01*
X240287Y253051D01*
X241002Y253552D01*
X241758Y253989D01*
X242550Y254358D01*
X243370Y254656D01*
X244214Y254882D01*
X245074Y255034D01*
X245943Y255110D01*
X246817Y255110D01*
X247687Y255034D01*
X248546Y254882D01*
X249390Y254656D01*
X250210Y254358D01*
X251002Y253989D01*
X251758Y253552D01*
X252473Y253051D01*
X253142Y252490D01*
X253760Y251872D01*
X254321Y251203D01*
X254822Y250488D01*
X255259Y249732D01*
X255628Y248940D01*
X255926Y248120D01*
X256152Y247276D01*
X256304Y246417D01*
X256380Y245547D01*
X256380Y244673D01*
X180725Y61537D02*
X180669Y61115D01*
X180559Y60703D01*
X180396Y60309D01*
X180183Y59941D01*
X179924Y59603D01*
X179622Y59301D01*
X179284Y59042D01*
X178916Y58829D01*
X178522Y58666D01*
X178110Y58556D01*
X177688Y58500D01*
X177262Y58500D01*
X176840Y58556D01*
X176428Y58666D01*
X176034Y58829D01*
X175666Y59042D01*
X175328Y59301D01*
X175026Y59603D01*
X174767Y59941D01*
X174554Y60309D01*
X174391Y60703D01*
X174281Y61115D01*
X174225Y61537D01*
X174225Y61963D01*
X174281Y62385D01*
X174391Y62797D01*
X174554Y63191D01*
X174767Y63559D01*
X175026Y63897D01*
X175328Y64199D01*
X175666Y64458D01*
X176034Y64671D01*
X176428Y64834D01*
X176840Y64944D01*
X177262Y65000D01*
X177688Y65000D01*
X178110Y64944D01*
X178522Y64834D01*
X178916Y64671D01*
X179284Y64458D01*
X179622Y64199D01*
X179924Y63897D01*
X180183Y63559D01*
X180396Y63191D01*
X180559Y62797D01*
X180669Y62385D01*
X180725Y61963D01*
X180725Y61537D01*
X238525Y61537D02*
X238469Y61115D01*
X238359Y60703D01*
X238196Y60309D01*
X237983Y59941D01*
X237724Y59603D01*
X237422Y59301D01*
X237084Y59042D01*
X236716Y58829D01*
X236322Y58666D01*
X235910Y58556D01*
X235488Y58500D01*
X235062Y58500D01*
X234640Y58556D01*
X234228Y58666D01*
X233834Y58829D01*
X233466Y59042D01*
X233128Y59301D01*
X232826Y59603D01*
X232567Y59941D01*
X232354Y60309D01*
X232191Y60703D01*
X232081Y61115D01*
X232025Y61537D01*
X232025Y61963D01*
X232081Y62385D01*
X232191Y62797D01*
X232354Y63191D01*
X232567Y63559D01*
X232826Y63897D01*
X233128Y64199D01*
X233466Y64458D01*
X233834Y64671D01*
X234228Y64834D01*
X234640Y64944D01*
X235062Y65000D01*
X235488Y65000D01*
X235910Y64944D01*
X236322Y64834D01*
X236716Y64671D01*
X237084Y64458D01*
X237422Y64199D01*
X237724Y63897D01*
X237983Y63559D01*
X238196Y63191D01*
X238359Y62797D01*
X238469Y62385D01*
X238525Y61963D01*
X238525Y61537D01*
M02*
